<svg width="1366" height="472" viewBox="0 0 1366 472" fill="none" xmlns="http://www.w3.org/2000/svg">
<rect width="1366" height="472" transform="matrix(1 0 0 -1 0 472)" fill="#20655A"/>
<mask id="mask0_6403_2" style="mask-type:alpha" maskUnits="userSpaceOnUse" x="0" y="0" width="1363" height="472">
<path d="M0 472H1363V0H0V472Z" fill="white"/>
</mask>
<g mask="url(#mask0_6403_2)">
<mask id="mask1_6403_2" style="mask-type:alpha" maskUnits="userSpaceOnUse" x="0" y="0" width="1363" height="472">
<path d="M0 472H1363V0H0V472Z" fill="#F0FFF6"/>
</mask>
<g mask="url(#mask1_6403_2)">
<g opacity="0.1">
<path d="M2073.78 507.441C2025.62 217.582 1542.26 33.5625 1179.13 37.2639C760.653 41.5655 602.932 294.161 284.47 217.332C-6.14565 147.305 -23.2686 -98.9875 -236.92 -137.802C-433.271 -173.466 -743.972 -24.5594 -1256 712.519" stroke="white" stroke-miterlimit="10"/>
<path d="M-1231.59 745.179C-725.782 18.7546 -414.904 -135.904 -215.768 -106.843C-68.1796 -85.1346 -11.3007 34.4605 104.175 127.946C161.811 176.068 232.701 211.354 310.48 230.635C565.25 293.958 717.105 153.806 989.353 93.6829C1058.75 78.1809 1130.06 69.619 1201.82 68.1733C1566.44 59.8201 2044.4 219.33 2100.03 498.636" stroke="white" stroke-miterlimit="10"/>
<path d="M-1207.12 777.742C-707.531 62.0221 -396.652 -98.3383 -195.147 -75.8298C-47.0249 -59.2736 13.2312 54.6194 128.944 143.353C187.961 189.744 258.745 224.148 335.9 243.941C586.997 308.315 738.793 182.067 1011.99 124.746C1081.42 110.055 1152.46 101.473 1223.98 99.1362C1590.14 87.0816 2062.65 221.082 2125.75 489.833" stroke="white" stroke-miterlimit="10"/>
<path d="M-1182.71 810.206C-689.462 105.34 -378.406 -60.6722 -174.294 -44.8662C-25.5199 -33.3619 37.8763 74.7289 154.004 158.761C214.274 203.394 284.898 236.936 361.375 257.248C609.035 322.672 760.238 210.28 1034.68 155.809C1104.17 141.798 1175.03 133.143 1246.37 129.95C1614.01 113.644 2081.07 222.685 2151.64 480.882" stroke="white" stroke-miterlimit="10"/>
<path d="M-1158.3 842.917C-671.275 148.605 -360.278 -22.96 -153.381 -13.8566C-4.1334 -7.35412 62.6993 94.9345 179.183 174.114C240.749 217.012 311.342 249.729 387.264 270.551C631.488 337.026 782.276 238.539 1058.08 186.869C1127.5 173.676 1198.01 165.014 1269.01 160.959C1638.19 140.402 2099.79 224.533 2177.88 472.177" stroke="white" stroke-miterlimit="10"/>
<path d="M-1134.13 875.53C-653.145 191.872 -341.97 9.9032 -132.466 17.1059C17.0779 22.1078 87.5247 114.793 204.245 189.521C267.078 230.608 337.637 262.496 412.979 283.857C653.766 351.382 804.021 266.8 1080.77 217.982C1150.17 205.474 1220.44 196.753 1291.16 191.872C1661.88 166.862 2118.04 226.235 2203.6 463.374" stroke="white" stroke-miterlimit="10"/>
<path d="M-1109.42 908.141C-634.953 235.187 -324.015 52.8183 -111.608 47.8164C38.4099 44.9153 112.471 134.949 229.369 204.976C293.398 244.236 363.931 275.315 438.695 297.21C676.046 365.786 825.945 295.06 1103.7 249.092C1173.08 237.331 1243.13 228.583 1313.56 222.882C1685.82 193.621 2136.53 227.884 2229.55 454.62" stroke="white" stroke-miterlimit="10"/>
<path d="M-1085.01 940.755C-616.942 278.455 -305.945 90.4338 -90.6937 79.0796C59.6799 70.9765 137.533 154.658 254.49 220.333C319.663 257.729 390.201 287.983 464.409 310.367C698.264 380.043 847.808 323.272 1126.63 280.005C1191.51 270.002 1260.77 260.398 1335.96 253.645C1709.82 219.983 2155.02 229.686 2255.5 445.768" stroke="white" stroke-miterlimit="10"/>
<path d="M-1060.6 973.366C-598.634 321.771 -287.874 128.598 -69.8385 109.941C80.9498 97.0859 162.654 174.415 279.73 235.638C346.049 271.151 416.632 300.643 490.3 323.621C720.719 394.348 869.789 351.382 1149.74 311.067C1214.91 301.663 1284 292.16 1358.59 284.557C1733.52 246.542 2173.5 231.437 2281.45 436.914" stroke="white" stroke-miterlimit="10"/>
<path d="M-1036.13 1005.93C-580.446 365.036 -269.805 166.661 -48.9249 141.052C102.219 123.495 188.07 194.272 304.672 251.093C372.051 284.701 442.669 313.447 515.776 337.025C742.817 408.803 891.473 379.742 1172.49 342.027C1237.66 333.224 1306.81 323.72 1380.81 315.317C1757.69 272.701 2191.98 232.886 2307.4 427.86" stroke="white" stroke-miterlimit="10"/>
<path d="M-1011.72 1038.54C-562.316 408.305 -251.734 204.828 -28.188 172.016C123.311 149.807 213.073 213.932 329.675 266.551C398.1 298.181 468.804 326.163 541.371 350.333C764.917 423.16 913.158 407.955 1195.3 373.342C1260.77 365.239 1329.74 355.685 1403.09 346.532C1781.51 299.314 2210.29 234.889 2333.29 419.309" stroke="white" stroke-miterlimit="10"/>
<path d="M-987.309 1071.15C-544.127 451.621 -233.545 242.993 -7.15509 202.977C144.759 176.167 238.491 233.539 354.855 281.957C421.747 309.768 490.239 337.828 567.203 363.638C787.312 437.466 935.138 436.215 1218.35 404.403C1284 396.951 1352.84 387.347 1425.72 377.443C1805.68 325.624 2229.01 236.59 2359.42 410.506" stroke="white" stroke-miterlimit="10"/>
<path d="M-962.895 1103.77C-525.934 495.088 -215.767 281.257 13.7039 233.989C166.033 202.527 263.912 253.046 379.98 297.363C448.472 323.523 517.141 350.783 592.921 376.943C809.594 451.971 956.946 464.426 1241.28 435.465C1307.11 428.712 1375.89 419.059 1448 408.355C1829.44 351.834 2247.38 238.291 2385.26 401.702" stroke="white" stroke-miterlimit="10"/>
<path d="M-938.604 1136.38C-507.805 538.204 -197.341 319.571 34.5587 265.001C187.302 229.037 289.329 272.504 405.101 312.819C475.252 337.228 544.039 363.738 618.397 390.298C831.693 466.227 978.511 492.737 1264.21 466.627C1330.27 460.475 1398.88 450.771 1470.39 439.367C1853.38 378.044 2265.87 239.991 2411.21 392.899" stroke="white" stroke-miterlimit="10"/>
<path d="M-914.012 1168.94C-489.612 581.47 -179.326 357.986 55.4771 295.962C208.695 255.447 314.809 291.811 430.167 328.174C501.976 350.783 571.001 376.643 644.351 403.553C854.092 480.532 1000.61 520.897 1287.14 497.638C1356.22 491.421 1424.89 482.222 1492.85 470.078C1877.26 404.203 2284.54 241.792 2437.16 384.046" stroke="white" stroke-miterlimit="10"/>
<path d="M-889.605 1201.55C-471.427 624.784 -160.845 396.248 76.1506 326.922C229.842 281.905 340.104 311.066 455.343 343.578C528.812 364.336 597.955 389.546 670.061 416.856C876.425 494.885 1022.47 549.156 1309.95 528.698C1378.97 523.238 1447.51 514.032 1515.13 501.138C1901.13 430.061 2302.84 243.491 2463.17 375.04" stroke="white" stroke-miterlimit="10"/>
<path d="M-865.191 1234.17C-453.294 668.051 -142.356 434.863 97.2467 357.884C251.294 308.466 365.762 330.224 480.409 358.935C555.536 377.792 624.798 402.501 695.719 430.162C898.587 509.241 1044.28 577.367 1333 559.761C1401.96 554.992 1470.38 545.728 1537.65 532.05C1924.95 456.272 2321.33 245.242 2489.12 366.438" stroke="white" stroke-miterlimit="10"/>
<path d="M-840.727 1266.78C-435.109 711.569 -124.349 473.329 118.098 388.898C272.796 334.977 391.235 349.283 505.467 374.342C582.49 391.198 651.693 415.408 721.428 443.468C920.86 523.498 1066.08 605.629 1355.92 590.874C1424.81 586.766 1493.12 577.442 1560.04 563.013C1948.77 482.283 2339.81 246.944 2515.07 357.636" stroke="white" stroke-miterlimit="10"/>
<path d="M-816.316 1299.39C-417.216 754.633 -105.982 511.891 139.012 420.056C294.244 361.734 416.652 368.487 530.587 390.045C609.092 405.051 678.709 428.66 747.142 457.07C943.137 538.251 1087.94 634.187 1378.85 622.133C1447.67 618.687 1515.88 609.301 1582.43 594.122C1972.59 508.39 2358.59 248.992 2541.02 349.03" stroke="white" stroke-miterlimit="10"/>
<path d="M-791.904 1332C-398.788 797.951 -87.5542 550.458 159.869 450.871C315.753 388.097 442.071 387.196 555.71 405.153C635.874 417.858 705.551 441.317 772.857 470.178C965.357 552.409 1109.75 662.2 1401.78 653.097C1470.52 650.338 1538.66 640.889 1604.83 624.936C1996.35 534.052 2376.78 250.395 2566.97 340.029" stroke="white" stroke-miterlimit="10"/>
<path d="M-767.434 1364.56C-380.598 841.216 -69.1267 589.271 180.548 481.831C337.024 414.705 467.194 406.052 580.537 420.557C662.359 431.011 732.214 454.22 798.276 483.331C987.399 566.663 1131.37 690.359 1424.48 684.057C1493.15 681.934 1561.23 672.42 1627.05 655.746C2019.63 559.31 2395.03 252.144 2592.81 331.174" stroke="white" stroke-miterlimit="10"/>
<path d="M-743.084 1397.18C-125.474 565.112 311.071 406.952 605.894 435.963C927.733 467.625 1050.56 719.77 1447.64 715.169C1913.46 709.717 2378.97 242.24 2618.87 322.371" stroke="white" stroke-miterlimit="10"/>
</g>
</g>
<g opacity="0.7" filter="url(#filter0_f_6403_2)">
<ellipse cx="134.704" cy="82.9688" rx="134.704" ry="82.9688" transform="matrix(1 0 0 -1 1191.38 373.053)" fill="#20655A"/>
</g>
<g opacity="0.7" filter="url(#filter1_f_6403_2)">
<ellipse cx="182.598" cy="112.469" rx="182.598" ry="112.469" transform="matrix(1 0 0 -1 -268.41 289.469)" fill="#20655A"/>
</g>
</g>
<defs>
<filter id="filter0_f_6403_2" x="777.377" y="-206.885" width="1097.41" height="993.938" filterUnits="userSpaceOnUse" color-interpolation-filters="sRGB">
<feFlood flood-opacity="0" result="BackgroundImageFix"/>
<feBlend mode="normal" in="SourceGraphic" in2="BackgroundImageFix" result="shape"/>
<feGaussianBlur stdDeviation="207" result="effect1_foregroundBlur_6403_2"/>
</filter>
<filter id="filter1_f_6403_2" x="-682.41" y="-349.469" width="1193.2" height="1052.94" filterUnits="userSpaceOnUse" color-interpolation-filters="sRGB">
<feFlood flood-opacity="0" result="BackgroundImageFix"/>
<feBlend mode="normal" in="SourceGraphic" in2="BackgroundImageFix" result="shape"/>
<feGaussianBlur stdDeviation="207" result="effect1_foregroundBlur_6403_2"/>
</filter>
</defs>
</svg>
