<svg width="117" height="73" viewBox="0 0 117 73" fill="none" xmlns="http://www.w3.org/2000/svg">
<path d="M25.2527 40.583C24.1454 39.9873 24.4348 39.3251 24.7858 38.6027C25.7384 36.6421 26.4062 34.6298 26.4398 32.529C26.4575 31.4261 26.55 30.3136 26.3977 29.2217C26.0516 26.7391 25.1196 24.3842 23.1738 22.3049C22.7899 21.8947 22.5043 21.9005 22.1275 22.3409C21.1193 23.5191 20.442 24.7959 20.0231 26.1612C19.5647 27.6554 19.2754 29.1621 19.2848 30.6919C19.2945 32.2531 19.5939 33.7904 20.0057 35.3249C20.6116 37.5824 21.7821 39.6564 23.507 41.5443C25.5004 43.7262 28.1446 45.3048 31.5681 46.1368C34.182 46.772 36.8529 46.8888 39.536 46.6572C43.4145 46.3224 46.8107 45.0841 49.8454 43.2874C54.3113 40.6432 57.4942 37.2583 59.9629 33.4724C61.3014 31.4198 62.4076 29.3029 63.1459 27.0799C63.8574 24.9379 64.4874 22.7885 64.5143 20.5719C64.5315 19.1535 64.6032 17.7246 64.4134 16.3181C63.9809 13.1113 62.6687 10.1159 60.0735 7.48531C59.7984 7.20631 59.4777 6.95234 59.1992 6.67504C58.9077 6.38474 58.6532 6.38453 58.3358 6.66109C56.8103 7.99052 55.65 9.47787 54.7862 11.1013C53.3129 13.8703 52.792 16.7641 52.9243 19.7114C52.9946 21.2783 53.2931 22.8496 53.6616 24.396C54.0287 25.9371 54.533 27.4671 55.1264 28.9692C55.5766 30.1086 56.2364 31.2044 56.854 32.3037C57.0791 32.7043 57.1138 33.0299 56.7971 33.4128C56.1776 34.1619 55.6219 34.9401 55.0236 35.6992C54.8995 35.8567 54.7051 35.9835 54.458 36.1986C54.0615 35.6485 53.6865 35.1641 53.356 34.6633C51.9292 32.5016 50.6752 30.2879 49.8715 27.9479C49.4015 26.5796 48.8687 25.2158 48.56 23.8259C48.0344 21.4586 47.7721 19.0605 48.0023 16.6626C48.3151 13.4071 49.2718 10.2602 51.3131 7.33605C52.7941 5.21464 54.7333 3.36066 57.1549 1.7874C57.5535 1.52833 57.9423 1.26041 58.3252 0.988277C58.6069 0.787987 58.8376 0.796291 59.1497 0.984402C63.0237 3.31992 65.9259 6.19411 67.5845 9.6955C68.2673 11.137 68.7313 12.6545 69.0574 14.1659C69.3882 15.699 69.5693 17.2678 69.5576 18.8199C69.5411 20.976 69.279 23.1323 68.5333 25.2317C67.8769 27.0795 67.3383 28.963 66.4524 30.7496C65.5414 32.5868 64.3714 34.3647 63.1395 36.0995C60.916 39.2305 58.027 42.0056 54.5025 44.3918C52.1554 45.9809 49.5319 47.2874 46.5985 48.1978C44.8106 48.7526 42.9637 49.2249 41.0004 49.3214C39.4204 49.3991 37.8339 49.5354 36.2574 49.4944C32.4827 49.3964 28.9838 48.5813 25.8707 46.9597C22.4505 45.1781 20.1354 42.7372 18.5906 39.8945C17.9057 38.6341 17.3203 37.3204 16.9619 35.9903C16.378 33.8238 16.1544 31.6121 16.4082 29.4019C16.648 27.3128 17.2033 25.2611 18.3089 23.3188C19.2472 21.6703 20.6367 20.2526 22.4783 19.0935C22.5737 19.0335 22.8887 19.0501 22.9784 19.1194C24.8055 20.5302 26.1949 22.142 27.0891 23.9974C27.757 25.3833 28.2523 26.8102 28.384 28.2601C28.5246 29.8091 28.3916 31.3782 28.2533 32.9324C28.1701 33.8678 27.9012 34.8002 27.6229 35.7182C27.1117 37.4041 26.3181 39.019 25.2527 40.583Z" fill="#20655A"/>
<path d="M25.2527 40.583C24.1454 39.9873 24.4348 39.3251 24.7858 38.6027C25.7384 36.6421 26.4062 34.6298 26.4398 32.529C26.4575 31.4261 26.55 30.3136 26.3977 29.2217C26.0516 26.7391 25.1196 24.3842 23.1738 22.3049C22.7899 21.8947 22.5043 21.9005 22.1275 22.3409C21.1193 23.5191 20.442 24.7959 20.0231 26.1612C19.5647 27.6554 19.2754 29.1621 19.2848 30.6919C19.2945 32.2531 19.5939 33.7904 20.0057 35.3249C20.6116 37.5824 21.7821 39.6564 23.507 41.5443C25.5004 43.7262 28.1446 45.3048 31.5681 46.1368C34.182 46.772 36.8529 46.8888 39.536 46.6572C43.4145 46.3224 46.8107 45.0841 49.8454 43.2874C54.3113 40.6432 57.4942 37.2583 59.9629 33.4724C61.3014 31.4198 62.4076 29.3029 63.1459 27.0799C63.8574 24.9379 64.4874 22.7885 64.5143 20.5719C64.5315 19.1535 64.6032 17.7246 64.4134 16.3181C63.9809 13.1113 62.6687 10.1159 60.0735 7.48531C59.7984 7.20631 59.4777 6.95234 59.1992 6.67504C58.9077 6.38474 58.6532 6.38453 58.3358 6.66109C56.8103 7.99052 55.65 9.47787 54.7862 11.1013C53.3129 13.8703 52.792 16.7641 52.9243 19.7114C52.9946 21.2783 53.2931 22.8496 53.6616 24.396C54.0287 25.9371 54.533 27.4671 55.1264 28.9692C55.5766 30.1086 56.2364 31.2044 56.854 32.3037C57.0791 32.7043 57.1138 33.0299 56.7971 33.4128C56.1776 34.1619 55.6219 34.9401 55.0236 35.6992C54.8995 35.8567 54.7051 35.9835 54.458 36.1986C54.0615 35.6485 53.6865 35.1641 53.356 34.6633C51.9292 32.5016 50.6752 30.2879 49.8715 27.9479C49.4015 26.5796 48.8687 25.2158 48.56 23.8259C48.0344 21.4586 47.7721 19.0605 48.0023 16.6626C48.3151 13.4071 49.2718 10.2602 51.3131 7.33605C52.7941 5.21464 54.7333 3.36066 57.1549 1.7874C57.5535 1.52833 57.9423 1.26041 58.3252 0.988277C58.6069 0.787987 58.8376 0.796291 59.1497 0.984402C63.0237 3.31992 65.9259 6.19411 67.5845 9.6955C68.2673 11.137 68.7313 12.6545 69.0574 14.1659C69.3882 15.699 69.5693 17.2678 69.5576 18.8199C69.5411 20.976 69.279 23.1323 68.5333 25.2317C67.8769 27.0795 67.3383 28.963 66.4524 30.7496C65.5414 32.5868 64.3714 34.3647 63.1395 36.0995C60.916 39.2305 58.027 42.0056 54.5025 44.3918C52.1554 45.9809 49.5319 47.2874 46.5985 48.1978C44.8106 48.7526 42.9637 49.2249 41.0004 49.3214C39.4204 49.3991 37.8339 49.5354 36.2574 49.4944C32.4827 49.3964 28.9838 48.5813 25.8707 46.9597C22.4505 45.1781 20.1354 42.7372 18.5906 39.8945C17.9057 38.6341 17.3203 37.3204 16.9619 35.9903C16.378 33.8238 16.1544 31.6121 16.4082 29.4019C16.648 27.3128 17.2033 25.2611 18.3089 23.3188C19.2472 21.6703 20.6367 20.2526 22.4783 19.0935C22.5737 19.0335 22.8887 19.0501 22.9784 19.1194C24.8055 20.5302 26.1949 22.142 27.0891 23.9974C27.757 25.3833 28.2523 26.8102 28.384 28.2601C28.5246 29.8091 28.3916 31.3782 28.2533 32.9324C28.1701 33.8678 27.9012 34.8002 27.6229 35.7182C27.1117 37.4041 26.3181 39.019 25.2527 40.583Z" fill="#20655A"/>
<path d="M63.2702 40.1286C63.8492 40.5809 64.3667 40.9928 64.8954 41.3968C67.5289 43.409 70.5363 45.0122 74.1095 45.9675C76.0914 46.4973 78.1519 46.7764 80.2621 46.7256C81.6324 46.6926 83.0263 46.6672 84.3609 46.4625C87.2339 46.0219 89.7574 45.0312 91.8655 43.4846C94.1098 41.838 95.61 39.8573 96.6648 37.6671C97.446 36.0449 97.7963 34.3676 98.1079 32.6636C98.4054 31.0368 98.2433 29.4423 97.9805 27.8542C97.659 25.9124 96.9082 24.0436 95.4607 22.3707C95.0536 21.9002 94.7559 21.8918 94.3409 22.3588C93.2731 23.5602 92.5255 24.8598 91.9533 26.242C91.27 27.8925 91.0357 29.5807 91.034 31.2749C91.0323 33.0516 91.2232 34.835 91.9545 36.5536C92.3359 37.4499 92.6947 38.3517 93.0904 39.2444C93.3561 39.8439 92.7604 40.1614 92.3432 40.6917C91.9639 40.0572 91.5714 39.541 91.3407 38.9875C90.7234 37.5066 90.1374 36.017 89.6093 34.5171C88.8964 32.4923 88.9289 30.4089 89.16 28.3582C89.4557 25.7346 90.4683 23.2318 92.4672 21.0153C93.1364 20.2734 93.9623 19.6098 94.8245 18.8102C95.7536 19.5681 96.7152 20.2351 97.4875 21.0071C99.0091 22.528 99.8565 24.2799 100.45 26.1192C101.153 28.3021 101.364 30.5125 101.172 32.7344C101.001 34.7098 100.546 36.6581 99.673 38.5474C98.7781 40.484 97.5914 42.3037 95.9149 43.9233C93.6015 46.1581 90.6814 47.7747 87.0591 48.7076C83.9479 49.5088 80.7554 49.6561 77.5401 49.4722C75.5093 49.356 73.5164 48.9572 71.6014 48.389C67.6006 47.2018 64.2085 45.3667 61.2219 43.0807C60.791 42.751 60.7616 42.5176 61.1593 42.163C61.8754 41.5244 62.53 40.8476 63.2702 40.1286Z" fill="#20655A"/>
<path d="M63.2702 40.1286C63.8492 40.5809 64.3667 40.9928 64.8954 41.3968C67.5289 43.409 70.5363 45.0122 74.1095 45.9675C76.0914 46.4973 78.1519 46.7764 80.2621 46.7256C81.6324 46.6926 83.0263 46.6672 84.3609 46.4625C87.2339 46.0219 89.7574 45.0312 91.8655 43.4846C94.1098 41.838 95.61 39.8573 96.6648 37.6671C97.446 36.0449 97.7963 34.3676 98.1079 32.6636C98.4054 31.0368 98.2433 29.4423 97.9805 27.8542C97.659 25.9124 96.9082 24.0436 95.4607 22.3707C95.0536 21.9002 94.7559 21.8918 94.3409 22.3588C93.2731 23.5602 92.5255 24.8598 91.9533 26.242C91.27 27.8925 91.0357 29.5807 91.034 31.2749C91.0323 33.0516 91.2232 34.835 91.9545 36.5536C92.3359 37.4499 92.6947 38.3517 93.0904 39.2444C93.3561 39.8439 92.7604 40.1614 92.3432 40.6917C91.9639 40.0572 91.5714 39.541 91.3407 38.9875C90.7234 37.5066 90.1374 36.017 89.6093 34.5171C88.8964 32.4923 88.9289 30.4089 89.16 28.3582C89.4557 25.7346 90.4683 23.2318 92.4672 21.0153C93.1364 20.2734 93.9623 19.6098 94.8245 18.8102C95.7536 19.5681 96.7152 20.2351 97.4875 21.0071C99.0091 22.528 99.8565 24.2799 100.45 26.1192C101.153 28.3021 101.364 30.5125 101.172 32.7344C101.001 34.7098 100.546 36.6581 99.673 38.5474C98.7781 40.484 97.5914 42.3037 95.9149 43.9233C93.6015 46.1581 90.6814 47.7747 87.0591 48.7076C83.9479 49.5088 80.7554 49.6561 77.5401 49.4722C75.5093 49.356 73.5164 48.9572 71.6014 48.389C67.6006 47.2018 64.2085 45.3667 61.2219 43.0807C60.791 42.751 60.7616 42.5176 61.1593 42.163C61.8754 41.5244 62.53 40.8476 63.2702 40.1286Z" fill="#20655A"/>
<path d="M97.9761 44.4387C102.996 49.9122 110.731 52.5233 116.481 53.4551C115.51 53.3088 114.518 53.2139 113.572 53.0038C112.259 52.7122 110.941 52.3988 109.696 51.9776C107.897 51.3686 106.098 50.7331 104.415 49.9673C101.799 48.7768 99.5751 47.2254 97.6618 45.4354C97.1246 44.9328 97.1654 44.7983 97.9761 44.4387Z" fill="#20655A"/>
<path d="M97.9761 44.4387C102.996 49.9122 110.731 52.5233 116.481 53.4551C115.51 53.3088 114.518 53.2139 113.572 53.0038C112.259 52.7122 110.941 52.3988 109.696 51.9776C107.897 51.3686 106.098 50.7331 104.415 49.9673C101.799 48.7768 99.5751 47.2254 97.6618 45.4354C97.1246 44.9328 97.1654 44.7983 97.9761 44.4387Z" fill="#20655A"/>
<path d="M0.519531 52.9229C8.3262 52.0066 14.9232 49.5447 20.0157 44.9882C20.7992 45.3089 20.8519 45.5186 20.2396 45.9982C17.2968 48.3031 13.8825 50.104 9.85926 51.1958C8.00359 51.6993 6.08335 52.0822 4.16761 52.4481C2.97553 52.6758 1.73712 52.7692 0.519531 52.9229Z" fill="#20655A"/>
<path d="M0.519531 52.9229C8.3262 52.0066 14.9232 49.5447 20.0157 44.9882C20.7992 45.3089 20.8519 45.5186 20.2396 45.9982C17.2968 48.3031 13.8825 50.104 9.85926 51.1958C8.00359 51.6993 6.08335 52.0822 4.16761 52.4481C2.97553 52.6758 1.73712 52.7692 0.519531 52.9229Z" fill="#20655A"/>
<path d="M22.3529 58.4229H22.5529V58.6229V58.7541V58.9541H22.3529C22.0308 58.9541 21.8107 59.0093 21.6535 59.1089C21.5 59.2062 21.383 59.3608 21.2959 59.6089C21.2074 59.8611 21.1541 60.1984 21.1242 60.6432C21.0944 61.0864 21.0883 61.623 21.0883 62.269V71.4072H22.91C23.6632 71.4072 25.2395 71.371 26.6229 71.1026C27.3164 70.9681 27.9448 70.7782 28.3948 70.5159C28.8448 70.2535 29.0778 69.9442 29.0778 69.5743V69.3743H29.2778H29.437H29.637V69.5743V71.7383V71.9383H29.437H18.0547H17.8547V71.7383V71.6072V71.4072H18.0547C18.3767 71.4072 18.5968 71.352 18.754 71.2524C18.9075 71.1551 19.0246 71.0005 19.1116 70.7524C19.2001 70.5001 19.2534 70.1629 19.2834 69.718C19.3132 69.2748 19.3192 68.7383 19.3192 68.0922V62.269C19.3192 61.623 19.3132 61.0864 19.2834 60.6432C19.2534 60.1984 19.2001 59.8611 19.1116 59.6089C19.0246 59.3608 18.9075 59.2062 18.754 59.1089C18.5968 59.0093 18.3767 58.9541 18.0547 58.9541H17.8547V58.7541V58.6229V58.4229H18.0547H22.3529Z" fill="#20655A" stroke="#437F75" stroke-width="0.4"/>
<path d="M22.3529 58.6229V58.7541C20.9838 58.7541 20.8883 59.6853 20.8883 62.269V71.6072H22.91C24.4224 71.6072 29.2778 71.4628 29.2778 69.5743H29.437V71.7383H18.0547V71.6072C19.4237 71.6072 19.5192 70.6759 19.5192 68.0922V62.269C19.5192 59.6853 19.4237 58.7541 18.0547 58.7541V58.6229H22.3529Z" fill="#20655A"/>
<path d="M29.3957 58.6223V58.4223H29.5957H33.8939H34.0939V58.6223V58.7535V58.9535H33.8939C33.5719 58.9535 33.3518 59.0086 33.1946 59.1083C33.0411 59.2055 32.924 59.3601 32.837 59.6082C32.7484 59.8605 32.6952 60.1978 32.6652 60.6426C32.6354 61.0858 32.6294 61.6223 32.6294 62.2684V68.0916C32.6294 69.3146 33.0482 70.2005 33.7187 70.7834C34.3934 71.37 35.345 71.6688 36.441 71.6688C37.5363 71.6688 38.4711 71.3671 39.1296 70.7801C39.7846 70.1964 40.189 69.3102 40.189 68.0916V62.2684C40.189 61.6223 40.1829 61.0858 40.1531 60.6426C40.1232 60.1978 40.0699 59.8605 39.9814 59.6082C39.8943 59.3601 39.7773 59.2055 39.6238 59.1083C39.4666 59.0086 39.2465 58.9535 38.9244 58.9535H38.7244V58.7535V58.6223V58.4223H38.9244H43.2226H43.4226V58.6223V58.7535V58.9535H43.2226C42.9006 58.9535 42.6805 59.0086 42.5233 59.1083C42.3698 59.2055 42.2527 59.3601 42.1657 59.6082C42.0772 59.8605 42.0239 60.1978 41.9939 60.6426C41.9641 61.0858 41.9581 61.6223 41.9581 62.2684V68.0916C41.9581 69.474 41.3243 70.5114 40.3098 71.1953C39.3034 71.8736 37.931 72.2 36.441 72.2C34.9517 72.2 33.5641 71.8805 32.542 71.2062C31.5115 70.5263 30.8603 69.4889 30.8603 68.0916V62.2684C30.8603 61.6223 30.8542 61.0858 30.8244 60.6426C30.7944 60.1978 30.7412 59.8605 30.6526 59.6082C30.5656 59.3601 30.4486 59.2055 30.295 59.1083C30.1378 59.0086 29.9177 58.9535 29.5957 58.9535H29.3957V58.7535V58.6223Z" fill="#20655A" stroke="#437F75" stroke-width="0.4"/>
<path d="M29.5957 58.6223H33.8939V58.7535C32.5249 58.7535 32.4294 59.6846 32.4294 62.2684V68.0916C32.4294 70.636 34.1805 71.8688 36.441 71.8688C38.7015 71.8688 40.389 70.6229 40.389 68.0916V62.2684C40.389 59.6846 40.2935 58.7535 38.9244 58.7535V58.6223H43.2226V58.7535C41.8536 58.7535 41.7581 59.6846 41.7581 62.2684V68.0916C41.7581 70.7146 39.3702 72 36.441 72C33.5118 72 31.0603 70.7409 31.0603 68.0916V62.2684C31.0603 59.6846 30.9647 58.7535 29.5957 58.7535V58.6223Z" fill="#20655A"/>
<path d="M43.9777 71.6202V71.4202H44.1777C44.5406 71.4202 44.937 71.2041 45.4433 70.6984C45.9459 70.1964 46.5223 69.4449 47.2475 68.4468L47.2478 68.4464C47.6595 67.8831 48.0978 67.2711 48.4986 66.7114C48.9153 66.1296 49.2914 65.6043 49.5551 65.2492C49.1921 64.7012 48.4697 63.6863 47.7016 62.6073C47.5719 62.4251 47.4409 62.241 47.31 62.0571C46.5528 60.9932 45.9643 60.209 45.4575 59.6907C44.9473 59.1688 44.5552 58.9541 44.1937 58.9541H43.9937V58.7541V58.6229V58.4229H44.1937H48.8898H49.0898V58.6229V58.7541V58.9541H48.8898H48.5396C48.3369 58.9541 48.1678 58.9937 48.055 59.0703C47.9544 59.1387 47.8799 59.2484 47.8799 59.4492C47.8799 59.4982 47.9011 59.5918 47.9618 59.7386C48.02 59.8798 48.1067 60.0513 48.2178 60.2486C48.44 60.6428 48.7517 61.125 49.107 61.6484C49.4619 62.1711 49.8578 62.731 50.2474 63.2804C50.2842 63.3323 50.321 63.3841 50.3577 63.4358C50.6457 63.8418 50.9278 64.2395 51.1837 64.6078C52.2682 63.0616 52.9818 61.974 53.4316 61.1742C53.906 60.3306 54.0724 59.8313 54.0866 59.4683C54.092 59.2926 54.0175 59.17 53.8973 59.0838C53.7697 58.9923 53.5865 58.9409 53.395 58.9409H52.9652H52.7652V58.7409V58.6229V58.4229H52.9652H56.8972H57.0972V58.6229V58.7409V58.9409H56.8972C56.5344 58.9409 56.138 59.1571 55.6317 59.6628C55.1291 60.1648 54.5527 60.9163 53.8274 61.9144L53.827 61.9148C53.4164 62.4766 52.9794 63.087 52.5794 63.6456C52.1615 64.2291 51.7842 64.756 51.5198 65.112C51.8822 65.659 52.603 66.6716 53.3697 67.7488C53.5007 67.9327 53.6329 68.1185 53.765 68.3042C54.5222 69.3681 55.1107 70.1522 55.6175 70.6706C56.1277 71.1924 56.5198 71.4072 56.8814 71.4072H57.0814V71.6072V71.7383V71.9383H56.8814H52.1852H51.9852V71.7383V71.6072V71.4072H52.1852H52.5353C52.738 71.4072 52.9072 71.3676 53.0199 71.2909C53.1205 71.2225 53.195 71.1128 53.195 70.912C53.195 70.863 53.1738 70.7693 53.1132 70.6225C53.0549 70.4813 52.9683 70.3098 52.8571 70.1124C52.6349 69.7179 52.3232 69.2352 51.9679 68.711C51.6129 68.1875 51.217 67.6263 50.8274 67.075C50.8045 67.0427 50.7816 67.0103 50.7588 66.978C50.4563 66.5502 50.1593 66.13 49.8911 65.7415C48.8067 67.2931 48.0932 68.3806 47.6434 69.1805C47.169 70.0239 47.0025 70.5233 46.9884 70.8928C46.9829 71.0686 47.0575 71.1912 47.1777 71.2774C47.3052 71.3689 47.4885 71.4202 47.6799 71.4202H48.1098H48.3098V71.6202V71.7383V71.9383H48.1098H44.1777H43.9777V71.7383V71.6202Z" fill="#20655A" stroke="#437F75" stroke-width="0.4"/>
<path d="M44.1777 71.6202C45.0692 71.6202 45.9607 70.5579 47.4093 68.5644C48.3008 67.3446 49.3038 65.9151 49.7972 65.2593C49.7814 65.2331 49.7654 65.2068 49.7495 65.1806C49.3356 64.5511 48.3963 63.2395 47.473 61.9411C45.9607 59.8164 45.0851 58.7541 44.1937 58.7541V58.6229H48.8898V58.7541H48.5396C48.0939 58.7541 47.6799 58.9246 47.6799 59.4492C47.6799 60.1705 49.8768 63.0559 51.1822 64.9576C53.5383 61.6132 54.2547 60.3017 54.2864 59.4754C54.3024 58.977 53.8408 58.7409 53.395 58.7409H52.9652V58.6229H56.8972V58.7409C56.0058 58.7409 55.1143 59.8033 53.6656 61.7968C52.7741 63.0166 51.7713 64.4461 51.2777 65.1018C51.2937 65.1281 51.3096 65.1544 51.3255 65.1806C51.7394 65.8101 52.6787 67.1217 53.602 68.4201C55.1143 70.5448 55.9899 71.6072 56.8814 71.6072V71.7383H52.1852V71.6072H52.5353C52.9811 71.6072 53.395 71.4367 53.395 70.912C53.395 70.1907 51.1981 67.3053 49.8927 65.3904C47.5367 68.748 46.8203 70.0464 46.7885 70.8858C46.7726 71.3842 47.2342 71.6202 47.6799 71.6202H48.1098V71.7383H44.1777V71.6202Z" fill="#20655A"/>
<path d="M60.4146 58.4219H60.53L60.5877 58.5218L66.5058 68.7556L71.1212 58.5396L71.1743 58.4219H71.3034H74.1052H74.3052V58.6219V58.7531V58.9531H74.1052C73.7831 58.9531 73.5631 59.0083 73.4058 59.1079C73.2523 59.2052 73.1353 59.3598 73.0482 59.6079C72.9597 59.8601 72.9064 60.1974 72.8765 60.6422C72.8466 61.0854 72.8406 61.622 72.8406 62.268V68.0913C72.8406 68.7373 72.8466 69.2739 72.8765 69.717C72.9064 70.1619 72.9597 70.4991 73.0482 70.7514C73.1353 70.9995 73.2523 71.1541 73.4058 71.2514C73.5631 71.351 73.7831 71.4062 74.1052 71.4062H74.3052V71.6062V71.7373V71.9373H74.1052H69.807H69.607V71.7373V71.6062V71.4062H69.807C70.1291 71.4062 70.3491 71.351 70.5064 71.2514C70.6599 71.1541 70.7769 70.9995 70.864 70.7514C70.9525 70.4991 71.0058 70.1619 71.0357 69.717C71.0656 69.2739 71.0716 68.7373 71.0716 68.0913V59.9808C70.3005 61.6846 69.5456 63.3637 68.7637 65.1029C67.9448 66.9244 67.0963 68.8117 66.1686 70.8623L66.1154 70.9799H65.9864H65.8431H65.7266L65.6691 70.8785C64.12 68.1471 62.9804 66.1309 61.7617 63.9746C61.1171 62.8341 60.4504 61.6544 59.6892 60.3089L59.6753 65.1797V65.1799V66.8452C59.6753 68.7373 60.0001 69.8787 60.4632 70.5425C60.9165 71.1924 61.5178 71.4062 62.1498 71.4062H62.3498V71.6062V71.7373V71.9373H62.1498H57.8516H57.6516V71.7373V71.6062V71.4062H57.8516C58.1736 71.4062 58.3937 71.351 58.5509 71.2514C58.7044 71.1541 58.8215 70.9995 58.9085 70.7514C58.997 70.4991 59.0503 70.1619 59.0803 69.717C59.1101 69.2739 59.1161 68.7373 59.1161 68.0913V62.268C59.1161 61.622 59.1101 61.0854 59.0803 60.6422C59.0503 60.1974 58.997 59.8601 58.9085 59.6079C58.8215 59.3598 58.7044 59.2052 58.5509 59.1079C58.3937 59.0083 58.1736 58.9531 57.8516 58.9531H57.6516V58.7531V58.6219V58.4219H57.8516H60.4146Z" fill="#20655A" stroke="#437F75" stroke-width="0.4"/>
<path d="M60.4146 58.6219L66.5276 69.1929L71.3034 58.6219H74.1052V58.7531C72.7361 58.7531 72.6406 59.6843 72.6406 62.268V68.0913C72.6406 70.675 72.7361 71.6062 74.1052 71.6062V71.7373H69.807V71.6062C71.1761 71.6062 71.2716 70.675 71.2716 68.0913V59.0547C69.5523 62.8451 67.9445 66.4518 65.9864 70.7799H65.8431C63.3438 66.3732 61.911 63.8287 59.4913 59.5532L59.4753 65.1797V66.8452C59.4753 70.6619 60.7807 71.6062 62.1498 71.6062V71.7373H57.8516V71.6062C59.2207 71.6062 59.3161 70.675 59.3161 68.0913V62.268C59.3161 59.6843 59.2207 58.7531 57.8516 58.7531V58.6219H60.4146Z" fill="#20655A"/>
<path d="M74.8605 58.6219V58.4219H75.0605H86.4588H86.6588V58.6219V60.3925V60.5925H86.4588H86.2996H86.0996V60.3925V60.34C86.0996 60.2087 86.0224 60.0521 85.7943 59.8816C85.5669 59.7117 85.2152 59.5492 84.7352 59.409C83.7773 59.1295 82.3574 58.9531 80.5368 58.9531H78.0942V64.0137C78.5587 63.7412 79.1203 63.5894 79.7408 63.5894C80.565 63.5894 81.2055 63.8031 81.7978 64.0068C81.8121 64.0118 81.8265 64.0167 81.8407 64.0216C82.4193 64.2208 82.9474 64.4025 83.5933 64.4025C83.8673 64.4025 84.125 64.3366 84.3073 64.2288C84.4896 64.1209 84.5713 63.9895 84.5713 63.855V63.655H84.7713H84.9305H85.1305V63.855C85.1305 64.7889 84.2036 65.4977 82.8929 65.4977C81.8782 65.4977 81.1578 65.2014 80.5589 64.9103C80.4686 64.8665 80.3822 64.8234 80.2988 64.782C79.8174 64.5423 79.4382 64.3535 79.0039 64.3435L79.0028 64.3434C78.6334 64.3329 78.3126 64.4773 78.0942 64.6845V71.4062H79.9319C80.6851 71.4062 82.2614 71.37 83.6448 71.1016C84.3383 70.9671 84.9666 70.7772 85.4166 70.5149C85.8666 70.2526 86.0996 69.9432 86.0996 69.5733V69.3733H86.2996H86.4588H86.6588V69.5733V71.7373V71.9373H86.4588H75.0605H74.8605V71.7373V71.6062V71.4062H75.0605C75.3826 71.4062 75.6027 71.351 75.7599 71.2514C75.9134 71.1541 76.0305 70.9995 76.1175 70.7514C76.206 70.4991 76.2593 70.1619 76.2892 69.717C76.3191 69.2739 76.3251 68.7373 76.3251 68.0913V62.268C76.3251 61.622 76.3191 61.0854 76.2892 60.6422C76.2593 60.1974 76.206 59.8601 76.1175 59.6079C76.0305 59.3598 75.9134 59.2052 75.7599 59.1079C75.6027 59.0083 75.3826 58.9531 75.0605 58.9531H74.8605V58.7531V58.6219Z" fill="#20655A" stroke="#437F75" stroke-width="0.4"/>
<path d="M75.0605 58.6219H86.4588V60.3925H86.2996V60.34C86.2996 59.4613 84.1982 58.7531 80.5368 58.7531H77.8942V64.3927C78.3718 64.0123 79.0085 63.7894 79.7408 63.7894C81.3169 63.7894 82.1924 64.6025 83.5933 64.6025C84.1982 64.6025 84.7713 64.314 84.7713 63.855H84.9305C84.9305 64.6288 84.1505 65.2977 82.8929 65.2977C80.9507 65.2977 80.1389 64.1698 79.0085 64.1435C78.5469 64.1304 78.1489 64.3271 77.8942 64.6025V71.6062H79.9319C81.4442 71.6062 86.2996 71.4618 86.2996 69.5733H86.4588V71.7373H75.0605V71.6062C76.4296 71.6062 76.5251 70.675 76.5251 68.0913V62.268C76.5251 59.6843 76.4296 58.7531 75.0605 58.7531V58.6219Z" fill="#20655A"/>
<path d="M93.1132 58.7436C92.1527 58.7436 91.2902 58.8584 90.4318 59.0671V71.2929C91.2902 71.5015 92.1527 71.6163 93.1132 71.6163C95.0218 71.6163 96.4319 70.8774 97.3691 69.7153C98.3108 68.5477 98.7874 66.9366 98.7874 65.18C98.7874 63.4234 98.3108 61.8123 97.3691 60.6447C96.4319 59.4825 95.0218 58.7436 93.1132 58.7436ZM87.2141 71.6065V71.4065H87.4141C87.7361 71.4065 87.9562 71.3513 88.1134 71.2517C88.2669 71.1544 88.384 70.9998 88.471 70.7517C88.5595 70.4995 88.6128 70.1622 88.6428 69.7174C88.6726 69.2742 88.6786 68.7376 88.6786 68.0916V62.2684C88.6786 61.6223 88.6726 61.0858 88.6428 60.6426C88.6128 60.1978 88.5595 59.8605 88.471 59.6082C88.384 59.3601 88.2669 59.2055 88.1134 59.1083C87.9562 59.0086 87.7361 58.9535 87.4141 58.9535H87.2141V58.7535V58.6223V58.4223H87.4141H88.6876C89.5134 58.4223 90.2655 58.3575 90.9919 58.2919C91.0248 58.289 91.0578 58.286 91.0907 58.283C91.7797 58.2206 92.4503 58.16 93.1291 58.16C95.6268 58.16 97.4891 58.9832 98.7264 60.2846C99.9615 61.5836 100.556 63.341 100.556 65.18C100.556 67.019 99.9615 68.7763 98.7264 70.0754C97.4891 71.3768 95.6268 72.2 93.1291 72.2C92.4503 72.2 91.7797 72.1393 91.0907 72.077C91.0578 72.074 91.0248 72.071 90.9919 72.068C90.2655 72.0024 89.5134 71.9377 88.6876 71.9377H87.4141H87.2141V71.7377V71.6065Z" fill="#20655A" stroke="#437F75" stroke-width="0.4"/>
<path d="M90.2318 71.4491C91.1551 71.6852 92.0785 71.8163 93.1132 71.8163C97.0452 71.8163 98.9874 68.7605 98.9874 65.18C98.9874 61.5995 97.0452 58.5436 93.1132 58.5436C92.0785 58.5436 91.1551 58.6747 90.2318 58.9108V71.4491ZM87.4141 71.6065C88.7832 71.6065 88.8786 70.6753 88.8786 68.0916V62.2684C88.8786 59.6846 88.7832 58.7535 87.4141 58.7535V58.6223H88.6876C90.3592 58.6223 91.7282 58.36 93.1291 58.36C98.0323 58.36 100.356 61.5864 100.356 65.18C100.356 68.7736 98.0323 72 93.1291 72C91.7282 72 90.3592 71.7377 88.6876 71.7377H87.4141V71.6065Z" fill="#20655A"/>
</svg>
